<svg width="40" height="40" viewBox="0 0 40 40" fill="none" xmlns="http://www.w3.org/2000/svg">
<path fill-rule="evenodd" clip-rule="evenodd" d="M36.6667 7.77778C35.7826 7.77778 34.9348 8.12897 34.3096 8.75409C33.6845 9.37921 33.3333 10.2271 33.3333 11.1111V13.3333H40V11.1111C40 10.2271 39.6488 9.37921 39.0237 8.75409C38.3986 8.12897 37.5507 7.77778 36.6667 7.77778ZM40 15.5556H33.3333V33.8889L36.6667 38.8889L40 33.8889V15.5556ZM0 3.33333V36.6667C0 37.5507 0.35119 38.3986 0.976311 39.0237C1.60143 39.6488 2.44928 40 3.33333 40H27.7778C28.6618 40 29.5097 39.6488 30.1348 39.0237C30.7599 38.3986 31.1111 37.5507 31.1111 36.6667V3.33333C31.1111 2.44928 30.7599 1.60143 30.1348 0.976311C29.5097 0.35119 28.6618 0 27.7778 0H3.33333C2.44928 0 1.60143 0.35119 0.976311 0.976311C0.35119 1.60143 0 2.44928 0 3.33333ZM15.5556 10C15.5556 9.70531 15.6726 9.4227 15.881 9.21433C16.0894 9.00595 16.372 8.88889 16.6667 8.88889H25.5556C25.8502 8.88889 26.1329 9.00595 26.3412 9.21433C26.5496 9.4227 26.6667 9.70531 26.6667 10C26.6667 10.2947 26.5496 10.5773 26.3412 10.7857C26.1329 10.994 25.8502 11.1111 25.5556 11.1111H16.6667C16.372 11.1111 16.0894 10.994 15.881 10.7857C15.6726 10.5773 15.5556 10.2947 15.5556 10ZM16.6667 13.3333C16.372 13.3333 16.0894 13.4504 15.881 13.6588C15.6726 13.8671 15.5556 14.1498 15.5556 14.4444C15.5556 14.7391 15.6726 15.0217 15.881 15.2301C16.0894 15.4385 16.372 15.5556 16.6667 15.5556H25.5556C25.8502 15.5556 26.1329 15.4385 26.3412 15.2301C26.5496 15.0217 26.6667 14.7391 26.6667 14.4444C26.6667 14.1498 26.5496 13.8671 26.3412 13.6588C26.1329 13.4504 25.8502 13.3333 25.5556 13.3333H16.6667ZM15.5556 24.4444C15.5556 24.1498 15.6726 23.8671 15.881 23.6588C16.0894 23.4504 16.372 23.3333 16.6667 23.3333H25.5556C25.8502 23.3333 26.1329 23.4504 26.3412 23.6588C26.5496 23.8671 26.6667 24.1498 26.6667 24.4444C26.6667 24.7391 26.5496 25.0217 26.3412 25.2301C26.1329 25.4385 25.8502 25.5556 25.5556 25.5556H16.6667C16.372 25.5556 16.0894 25.4385 15.881 25.2301C15.6726 25.0217 15.5556 24.7391 15.5556 24.4444ZM16.6667 27.7778C16.372 27.7778 16.0894 27.8948 15.881 28.1032C15.6726 28.3116 15.5556 28.5942 15.5556 28.8889C15.5556 29.1836 15.6726 29.4662 15.881 29.6746C16.0894 29.8829 16.372 30 16.6667 30H25.5556C25.8502 30 26.1329 29.8829 26.3412 29.6746C26.5496 29.4662 26.6667 29.1836 26.6667 28.8889C26.6667 28.5942 26.5496 28.3116 26.3412 28.1032C26.1329 27.8948 25.8502 27.7778 25.5556 27.7778H16.6667ZM6.66667 24.4444V27.7778H10V24.4444H6.66667ZM5.55556 22.2222H11.1111C11.4058 22.2222 11.6884 22.3393 11.8968 22.5477C12.1052 22.756 12.2222 23.0386 12.2222 23.3333V28.8889C12.2222 29.1836 12.1052 29.4662 11.8968 29.6746C11.6884 29.8829 11.4058 30 11.1111 30H5.55556C5.26087 30 4.97826 29.8829 4.76988 29.6746C4.56151 29.4662 4.44444 29.1836 4.44444 28.8889V23.3333C4.44444 23.0386 4.56151 22.756 4.76988 22.5477C4.97826 22.3393 5.26087 22.2222 5.55556 22.2222ZM13.0078 10.7856C13.2102 10.576 13.3222 10.2953 13.3196 10.004C13.3171 9.71267 13.2003 9.43399 12.9942 9.22798C12.7882 9.02197 12.5096 8.90512 12.2182 8.90259C11.9269 8.90005 11.6462 9.01205 11.4367 9.21445L7.77778 12.8733L6.34111 11.4367C6.13155 11.2343 5.85088 11.1223 5.55956 11.1248C5.26823 11.1273 4.98954 11.2442 4.78354 11.4502C4.57753 11.6562 4.46067 11.9349 4.45814 12.2262C4.45561 12.5176 4.5676 12.7982 4.77 13.0078L7.77778 16.0156L13.0078 10.7856Z" fill="#1A3260"/>
</svg>
